<?xml version="1.0" encoding="UTF-8" standalone="no"?>
<!-- Created with Inkscape (http://www.inkscape.org/) -->

<svg
   xmlns:dc="http://purl.org/dc/elements/1.1/"
   xmlns:cc="http://creativecommons.org/ns#"
   xmlns:rdf="http://www.w3.org/1999/02/22-rdf-syntax-ns#"
   xmlns:svg="http://www.w3.org/2000/svg"
   xmlns="http://www.w3.org/2000/svg"
   xmlns:sodipodi="http://sodipodi.sourceforge.net/DTD/sodipodi-0.dtd"
   xmlns:inkscape="http://www.inkscape.org/namespaces/inkscape"
   width="220mm"
   height="96.469475mm"
   viewBox="0 0 220 96.469475"
   version="1.1"
   id="svg4488"
   inkscape:version="0.92.1 r15371"
   sodipodi:docname="moon_landing.svg">
  <defs
     id="defs4482" />
  <sodipodi:namedview
     id="base"
     pagecolor="#ffffff"
     bordercolor="#666666"
     borderopacity="1.0"
     inkscape:pageopacity="0.0"
     inkscape:pageshadow="2"
     inkscape:zoom="0.7"
     inkscape:cx="452.14588"
     inkscape:cy="33.428368"
     inkscape:document-units="mm"
     inkscape:current-layer="layer1"
     showgrid="false"
     inkscape:window-width="1680"
     inkscape:window-height="1023"
     inkscape:window-x="0"
     inkscape:window-y="0"
     inkscape:window-maximized="1"
     fit-margin-top="0"
     fit-margin-left="0"
     fit-margin-right="0"
     fit-margin-bottom="0" />
  <metadata
     id="metadata4485">
    <rdf:RDF>
      <cc:Work
         rdf:about="">
        <dc:format>image/svg+xml</dc:format>
        <dc:type
           rdf:resource="http://purl.org/dc/dcmitype/StillImage" />
        <dc:title />
      </cc:Work>
    </rdf:RDF>
  </metadata>
  <g
     inkscape:label="Layer 1"
     inkscape:groupmode="layer"
     id="layer1"
     transform="translate(10.690781,-185.8254)">
    <path
       d="m 82.60617,220.10001 h -0.89182 l -4.27773,-15.62584 c -0.0535,-0.12429 -0.15571,-0.22161 -0.28179,-0.26982 -0.12519,-0.0482 -0.2663,-0.0434 -0.38973,0.0137 l -7.09563,3.29493 h -0.0672 c 0.27471,-0.13358 0.54412,-0.27557 0.80335,-0.43348 1.98138,-1.20846 3.48632,-3.12022 4.16536,-5.38584 l 2.02518,-0.18932 c 0.25834,-0.0239 0.4552,-0.24019 0.4552,-0.49939 v -4.79223 c 0,-0.25921 -0.19774,-0.47639 -0.45697,-0.49939 l -2.29148,-0.20701 c -0.4207,-1.06072 -1.03073,-2.02677 -1.7832,-2.86057 l 1.60448,-1.60478 2.0787,2.07808 c 0.0986,0.0978 0.22649,0.14685 0.35523,0.14685 0.12784,0 0.25657,-0.0491 0.35433,-0.14685 0.19597,-0.19595 0.19597,-0.51355 0,-0.7095 l -2.0787,-2.07808 0.54854,-0.54849 1.21829,1.2173 c 0.0978,0.0977 0.2265,0.14685 0.35434,0.14685 0.12873,0 0.25658,-0.0491 0.35523,-0.14685 0.19508,-0.19596 0.19508,-0.51355 0,-0.7095 l -1.21829,-1.2173 0.4897,-0.48922 c 0.19508,-0.19595 0.19508,-0.51355 0,-0.7095 -0.19597,-0.19551 -0.51315,-0.19551 -0.70956,0 l -0.48971,0.48922 -1.2174,-1.2173 c -0.19597,-0.19551 -0.51315,-0.19551 -0.70957,0 -0.19508,0.19595 -0.19508,0.51355 0,0.7095 l 1.21741,1.2173 -0.54854,0.54849 -2.07782,-2.07764 c -0.19597,-0.19551 -0.51315,-0.19551 -0.70956,0 -0.19509,0.19596 -0.19509,0.51355 0,0.70951 l 2.0787,2.07763 -1.60625,1.60611 c -0.62286,-0.55866 -1.31782,-1.03903 -2.07207,-1.41899 l -0.1044,-2.5903 c -0.0102,-0.26894 -0.23136,-0.48126 -0.50121,-0.48126 h -6.967786 c -0.08317,0 -0.157042,0.0256 -0.226494,0.061 -0.71266,-1.01559 -1.890252,-1.68263 -3.22179,-1.68263 -2.170272,0 -3.936218,1.76535 -3.936218,3.93543 0,1.82904 1.255449,3.36615 2.948846,3.80583 -0.426888,0.60953 -0.792286,1.26463 -1.067884,1.96794 l -1.978726,0.1787 c -0.258345,0.0234 -0.456085,0.24018 -0.456085,0.49939 v 4.79223 c 0,0.25876 0.196855,0.47551 0.454315,0.49939 l 1.711535,0.15968 c 0.688772,2.33154 2.252553,4.28444 4.306925,5.49244 l -6.32812,-2.93841 c -0.123421,-0.0571 -0.264537,-0.0624 -0.389729,-0.0137 -0.12696,0.0482 -0.228263,0.14553 -0.282675,0.26982 l -4.27596,15.62584 H 48.32775 c -0.277367,0 -0.502092,0.2247 -0.502092,0.5016 0,0.2769 0.224725,0.50161 0.502092,0.50161 h 1.421339 v 0 0 h 2.973177 c 0.276482,0 0.501206,-0.22471 0.501206,-0.50161 0,-0.2769 -0.224724,-0.5016 -0.501206,-0.5016 h -2.210087 l 2.086223,-7.9036 v 2.6363 c 0,0.2769 0.224724,0.50161 0.501206,0.50161 h 7.871996 L 60.322645,217.86 c -0.03893,0.1504 -0.0053,0.30964 0.0898,0.43216 0.09422,0.12253 0.241093,0.19419 0.395923,0.19419 h 4.33568 v 1.61319 h -2.476394 c -0.277367,0 -0.502092,0.2247 -0.502092,0.5016 0,0.2769 0.224725,0.5016 0.502092,0.5016 H 68.6233 c 0.27648,0 0.5012,-0.2247 0.5012,-0.5016 0,-0.2769 -0.22472,-0.5016 -0.5012,-0.5016 h -2.4764 v -1.61319 h 4.33569 0.009 c 0.27736,0 0.50209,-0.22471 0.50209,-0.50161 0,-0.0761 -0.0173,-0.14774 -0.0473,-0.21232 l -0.62551,-2.43813 h 7.87067 c 0.27736,0 0.50209,-0.22471 0.50209,-0.50161 v -2.26474 l 1.92564,7.5316 h -2.41221 c -0.27648,0 -0.5012,0.2247 -0.5012,0.5016 0,0.2769 0.22472,0.5016 0.5012,0.5016 h 3.17446 v 0 0 h 1.22006 c 0.27736,0 0.50209,-0.2247 0.50209,-0.5016 0,-0.2769 -0.22517,-0.50116 -0.50253,-0.50116 z m -12.24704,-14.18295 -0.15395,-3.816 3.27974,-0.3061 c -0.59278,1.67689 -1.69693,3.11447 -3.12579,4.1221 z m 4.2879,-9.37258 1.40143,0.12651 v 3.87748 l -1.23023,0.11501 -1.04134,0.0973 -3.61241,0.33706 -0.20039,-4.97624 3.61063,0.326 z m -3.54914,-3.89518 c 0.25038,0.22205 0.48882,0.45649 0.71177,0.70641 0.545,0.61086 1.00463,1.29869 1.3572,2.04755 L 69.92251,195.11 69.78493,191.68546 c 0.46935,0.27823 0.90686,0.60423 1.31296,0.96384 z m 5.62254,12.69582 0.62714,2.16787 H 72.05164 Z M 55.782107,189.76087 c 0,-1.61672 1.316055,-2.93222 2.933363,-2.93222 1.459383,0 2.668826,1.07266 2.891781,2.46954 0.02433,0.15128 0.0407,0.30477 0.0407,0.46268 0,0.20126 -0.02079,0.3981 -0.05972,0.5883 -0.008,0.0367 -0.02344,0.0102 -0.02344,0.0102 -0.347261,0.15836 -0.67904,0.34325 -1.001528,0.54142 l -0.407874,-0.40695 c 0.113248,-0.22116 0.183142,-0.46754 0.183142,-0.73206 0,-0.89528 -0.728143,-1.6238 -1.624387,-1.6238 -0.894916,0 -1.623502,0.72852 -1.623502,1.6238 0,0.89484 0.728143,1.62292 1.623502,1.62292 0.264538,0 0.511381,-0.0695 0.731682,-0.18224 l 0.279136,0.27911 c -0.465817,0.36139 -0.902879,0.75904 -1.296147,1.19784 -1.482829,-0.1442 -2.646708,-1.39777 -2.646708,-2.91851 z m 5.59113,5.3478 -3.579668,0.32335 c 0.290195,-0.6259 0.654709,-1.21023 1.080713,-1.74279 0.720622,-0.89971 1.618194,-1.65035 2.644937,-2.19574 l -0.04335,1.06823 z m -3.012548,-4.9926 0.254806,0.25566 c -0.29462,-0.0478 -0.521114,-0.30211 -0.521114,-0.60997 0,-0.34237 0.278252,-0.62104 0.620205,-0.62104 0.308333,0 0.563138,0.22692 0.610914,0.5224 l -0.25569,-0.25611 c -0.195971,-0.19596 -0.513151,-0.19551 -0.709564,0 -0.19597,0.19551 -0.19597,0.5131 4.5e-4,0.70906 z m -2.20699,10.51866 -0.925441,-0.0863 v -3.87748 l 1.094869,-0.0991 1.059479,-0.0955 3.950375,-0.35696 -0.201279,4.97977 -3.945066,-0.36846 z m 1.327114,1.13148 3.610633,0.33706 -0.16235,4.02434 c -1.590767,-1.01825 -2.816577,-2.5496 -3.448283,-4.3614 z m -3.06519,3.57891 4.668343,2.16787 h -5.226112 z m 3.039532,8.98643 h -3.850841 v -5.81535 h 3.850841 z m 7.691066,3.1525 H 61.45773 l 0.552079,-2.14929 h 3.136412 z m 0,-3.1525 H 61.62008 58.45801 v -5.81535 h 2.878952 v 0 h 3.807489 z m 0.502091,-9.79545 c -0.277366,0 -0.502091,0.2247 -0.502091,0.5016 v 2.42 c -1.152377,-0.0469 -2.243707,-0.32821 -3.234618,-0.79133 l 0.192873,-4.78559 0.261884,-6.48857 0.175179,-4.35079 0.01902,-0.46754 0.02433,-0.61573 0.02831,-0.71038 0.03274,-0.79797 h 6.004741 l 0.0655,1.62911 0.0434,1.08283 0.16943,4.19198 0.26454,6.55581 0.1858,4.60379 c -0.98163,0.50957 -2.07296,0.8338 -3.22976,0.92492 v -2.40054 c 0,-0.2769 -0.224721,-0.5016 -0.501203,-0.5016 z m 0.501208,12.94795 v -2.14929 h 3.13729 l 0.5512,2.14929 z m 6.68821,-3.1525 h -3.16207 -3.52614 v -5.81535 h 3.6478 v 0 h 3.03864 z m 4.85503,0 h -3.85173 v -5.81535 h 3.85173 z"
       id="path6"
       inkscape:connector-curvature="0"
       sodipodi:nodetypes="ccccccccccsscccccssccccscccccccccccccccccccsscsscccsscccccccssscccsssccsscccsccsssssscccssccssccssscccsscccccccccccccccccccccccccsscsccccsssscccsccccccccssccccccccccccccccccccccccccccccccsccccccscccccccccccccccccssccccccccccccccccccc"
       style="fill:#000000;stroke-width:0.44235182" />
    <path
       style="fill:none;fill-rule:evenodd;stroke:#000000;stroke-width:2.66199988;stroke-linecap:butt;stroke-linejoin:miter;stroke-miterlimit:4;stroke-dasharray:1.33099994,1.33099994;stroke-opacity:1;stroke-dashoffset:0"
       d="M -10.690781,280.96382 H 209.30922"
       id="path5067"
       inkscape:connector-curvature="0" />
    <path
       style="fill:none;fill-rule:evenodd;stroke:#000000;stroke-width:2.66199994;stroke-linecap:butt;stroke-linejoin:miter;stroke-miterlimit:4;stroke-dasharray:none;stroke-opacity:1"
       d="M 59.309219,280.96387 H 139.30922"
       id="path5067-3"
       inkscape:connector-curvature="0" />
  </g>
</svg>
