<?xml version="1.0" encoding="UTF-8" standalone="no"?>
<svg
   xmlns:dc="http://purl.org/dc/elements/1.1/"
   xmlns:cc="http://creativecommons.org/ns#"
   xmlns:rdf="http://www.w3.org/1999/02/22-rdf-syntax-ns#"
   xmlns:svg="http://www.w3.org/2000/svg"
   xmlns="http://www.w3.org/2000/svg"
   xmlns:sodipodi="http://sodipodi.sourceforge.net/DTD/sodipodi-0.dtd"
   xmlns:inkscape="http://www.inkscape.org/namespaces/inkscape"
   version="1.1"
   x="0px"
   y="0px"
   viewBox="0 0 133.33333 133.33333"
   enable-background="new 0 0 100 100"
   xml:space="preserve"
   id="svg8"
   sodipodi:docname="lunar_lander.svg"
   width="100pt"
   height="100pt"
   style="fill:#000000"
   inkscape:version="0.92.1 r15371"><metadata
     id="metadata14"><rdf:RDF><cc:Work
         rdf:about=""><dc:format>image/svg+xml</dc:format><dc:type
           rdf:resource="http://purl.org/dc/dcmitype/StillImage" /><dc:title></dc:title></cc:Work></rdf:RDF></metadata><defs
     id="defs12" /><sodipodi:namedview
     pagecolor="#ffffff"
     bordercolor="#666666"
     borderopacity="1"
     objecttolerance="10"
     gridtolerance="10"
     guidetolerance="10"
     inkscape:pageopacity="0"
     inkscape:pageshadow="2"
     inkscape:window-width="1680"
     inkscape:window-height="1023"
     id="namedview10"
     showgrid="false"
     fit-margin-top="0"
     fit-margin-left="0"
     fit-margin-right="0"
     fit-margin-bottom="0"
     units="pt"
     inkscape:zoom="1.668772"
     inkscape:cx="206.22936"
     inkscape:cy="67.386265"
     inkscape:window-x="0"
     inkscape:window-y="0"
     inkscape:window-maximized="1"
     inkscape:current-layer="svg8" /><path
     d="M 131.45406,129.54168 H 128.0834 L 111.9156,70.483403 c -0.20231,-0.469777 -0.58853,-0.837575 -1.06503,-1.019802 -0.47317,-0.182227 -1.00652,-0.163837 -1.473,0.05183 l -26.818142,12.45329 h -0.254137 c 1.038283,-0.504886 2.056504,-1.041536 3.036269,-1.638372 7.488683,-4.567378 13.176671,-11.792929 15.74312,-20.355927 l 7.65421,-0.715534 c 0.97642,-0.09028 1.72044,-0.907791 1.72044,-1.887471 V 39.259055 c 0,-0.979679 -0.74737,-1.800536 -1.72713,-1.88747 l -8.66072,-0.782406 C 98.481448,32.580184 96.175823,28.928957 93.331829,25.7776 l 6.064178,-6.065318 7.856513,7.854152 c 0.37285,0.369469 0.85604,0.55504 1.34258,0.55504 0.48319,0 0.96973,-0.185571 1.33923,-0.55504 0.74068,-0.740611 0.74068,-1.940969 0,-2.681579 l -7.85651,-7.854152 2.07322,-2.073041 4.60457,4.600814 c 0.3695,0.369469 0.85604,0.55504 1.33923,0.55504 0.48654,0 0.96973,-0.185571 1.34258,-0.55504 0.73733,-0.740611 0.73733,-1.940969 0,-2.681579 l -4.60456,-4.600814 1.85085,-1.849019 c 0.73733,-0.740611 0.73733,-1.940969 0,-2.68158 -0.74067,-0.738939 -1.93946,-0.738939 -2.68181,0 l -1.85086,1.849019 -4.601213,-4.600814 c -0.740676,-0.738939 -1.939467,-0.738939 -2.681815,0 -0.737332,0.740611 -0.737332,1.940969 0,2.681579 l 4.601218,4.600815 -2.073223,2.073041 -7.853169,-7.85248 c -0.740676,-0.738939 -1.939467,-0.738939 -2.681815,0 -0.737331,0.740611 -0.737331,1.940969 0,2.681579 l 7.856513,7.85248 -6.070866,6.070333 C 88.292559,20.989543 85.665919,19.17396 82.815237,17.737878 L 82.420656,7.947773 C 82.382206,6.931314 81.546224,6.128847 80.526332,6.128847 H 54.191381 c -0.314328,0 -0.593544,0.09696 -0.856041,0.230709 C 50.641822,2.521086 46.19108,0 41.158497,0 32.95589,0 26.281449,6.672184 26.281449,14.874071 c 0,6.912924 4.745006,12.722455 11.145247,14.384232 -1.613436,2.303751 -2.99447,4.779697 -4.036098,7.437871 l -7.478651,0.675411 c -0.976421,0.0886 -1.723785,0.907791 -1.723785,1.88747 v 18.112362 c 0,0.978008 0.74402,1.797193 1.717097,1.887471 l 6.468791,0.603523 c 2.603233,8.812097 8.513591,16.193127 16.278146,20.758833 L 24.734891,69.515427 c -0.466475,-0.215663 -0.999828,-0.235725 -1.472992,-0.05183 -0.47985,0.182227 -0.862728,0.550025 -1.068378,1.019802 L 6.032411,129.54168 H 1.897668 C 0.849353,129.54168 0,130.39096 0,131.43751 c 0,1.04655 0.849353,1.89583 1.897668,1.89583 h 5.371989 v 0 0 h 11.237205 c 1.044971,0 1.894324,-0.84928 1.894324,-1.89583 0,-1.04655 -0.849353,-1.89583 -1.894324,-1.89583 h -8.353084 l 7.884936,-29.871862 v 9.963972 c 0,1.04655 0.849353,1.89583 1.894325,1.89583 h 29.752425 l -2.452757,9.54602 c -0.147132,0.56842 -0.02006,1.17027 0.339407,1.63336 0.356126,0.46309 0.911215,0.73392 1.496399,0.73392 h 16.386823 v 6.09709 h -9.3596 c -1.048315,0 -1.897668,0.84927 -1.897668,1.89583 0,1.04655 0.849353,1.89582 1.897668,1.89582 h 22.50952 c 1.044972,0 1.894324,-0.84927 1.894324,-1.89582 0,-1.04656 -0.849352,-1.89583 -1.894324,-1.89583 h -9.3596 v -6.09709 h 16.386824 0.03344 c 1.048315,0 1.897668,-0.84928 1.897668,-1.89583 0,-0.28755 -0.06521,-0.55838 -0.178899,-0.80247 l -2.364144,-9.215 h 29.747415 c 1.04831,0 1.89766,-0.84928 1.89766,-1.89583 v -8.55965 l 7.27802,28.46587 h -9.11717 c -1.04497,0 -1.89432,0.84927 -1.89432,1.89583 0,1.04655 0.84935,1.89582 1.89432,1.89582 h 11.99795 v 0 0 h 4.61125 c 1.04831,0 1.89767,-0.84927 1.89767,-1.89582 0,-1.04656 -0.85103,-1.89416 -1.89934,-1.89416 z M 85.166004,75.936839 84.584164,61.514156 96.980033,60.357266 c -2.240419,6.337822 -6.413616,11.771196 -11.814029,15.579573 z m 16.206256,-35.423928 5.29675,0.478137 v 14.655064 l -4.64971,0.43467 -3.935777,0.367798 -13.653178,1.273917 -0.757396,-18.807834 13.646491,1.232122 z M 87.958168,25.790974 c 0.946326,0.839248 1.847509,1.725306 2.690174,2.669877 2.059848,2.308766 3.797008,4.908426 5.129556,7.738797 L 83.515786,35.091239 82.995808,22.148106 c 1.773943,1.051567 3.427506,2.283689 4.96236,3.642868 z m 21.250542,47.984218 2.37029,8.193529 H 91.562901 Z M 30.071769,14.874071 c 0,-6.110456 4.974064,-11.082411 11.086728,-11.082411 5.515777,0 10.0869,4.054133 10.929565,9.333701 0.09196,0.571758 0.15382,1.151875 0.15382,1.74871 0,0.760673 -0.07858,1.504627 -0.225714,2.223504 -0.03009,0.13876 -0.08861,0.03845 -0.08861,0.03845 -1.312485,0.598507 -2.56645,1.297323 -3.785305,2.046293 l -1.541542,-1.538063 c 0.428021,-0.835904 0.692189,-1.767101 0.692189,-2.766842 0,-3.383738 -2.752036,-6.137205 -6.139415,-6.137205 -3.382364,0 -6.136072,2.753467 -6.136072,6.137205 0,3.382067 2.752036,6.133862 6.136072,6.133862 0.999828,0 1.932779,-0.262474 2.765412,-0.688785 l 1.055003,1.054911 c -1.760568,1.365867 -3.412459,2.868822 -4.898826,4.527255 C 34.47068,25.359648 30.071769,20.621745 30.071769,14.874071 Z m 21.131829,20.212153 -13.529453,1.222091 c 1.096802,-2.365608 2.474492,-4.574065 4.084584,-6.586921 2.723613,-3.400457 6.116009,-6.237514 9.996614,-8.298853 l -0.163851,4.037415 z M 39.81759,16.216533 l 0.963046,0.966305 c -1.113522,-0.180556 -1.969562,-1.141845 -1.969562,-2.305423 0,-1.293979 1.051659,-2.347218 2.34408,-2.347218 1.165352,0 2.128397,0.857638 2.308968,1.974405 l -0.966389,-0.967977 c -0.740676,-0.74061 -1.939467,-0.738938 -2.681815,0 -0.740676,0.738939 -0.740676,1.939297 0.0017,2.679908 z M 31.47621,55.972115 27.978482,55.646112 V 40.991048 l 4.138087,-0.374485 4.00433,-0.36111 14.930552,-1.349149 -0.76074,18.821208 -14.910487,-1.392615 z m 5.015863,4.276483 13.646491,1.273917 -0.613608,15.210105 C 43.512609,72.884119 38.879624,67.096322 36.492073,60.248598 Z M 24.907102,73.775192 42.551235,81.968721 H 22.799 Z M 36.3951,107.73963 H 21.840738 V 85.76038 H 36.3951 Z M 65.463696,119.6546 H 51.522942 l 2.086599,-8.12331 h 11.854155 z m 0,-11.91497 H 52.136549 40.18542 V 85.76038 h 10.881078 v 0 h 14.39051 z m 1.897668,-37.022173 c -1.048315,0 -1.897668,0.849278 -1.897668,1.895829 v 9.146459 C 61.108255,81.582533 56.983544,80.519264 53.238367,78.768881 l 0.728972,-18.087285 0.989797,-24.523744 0.662093,-16.443898 0.0719,-1.7671 0.09196,-2.327156 0.107005,-2.684923 0.123725,-3.015941 h 22.695098 l 0.24745,6.157267 0.163851,4.092585 0.640358,15.843719 0.999829,24.777859 0.702221,17.400172 c -3.710067,1.925922 -7.834778,3.151357 -12.206938,3.495749 v -9.072899 c 0,-1.046551 -0.849353,-1.895829 -1.894324,-1.895829 z m 1.894324,48.937143 v -8.12331 h 11.857499 l 2.083255,8.12331 z M 94.533964,107.73963 H 82.582835 69.255688 V 85.76038 h 13.786935 v 0 h 11.484653 z m 18.349696,0 H 98.325956 V 85.76038 h 14.557704 z"
     id="path6"
     inkscape:connector-curvature="0"
     sodipodi:nodetypes="ccccccccccsscccccssccccscccccccccccccccccccsscsscccsscccccccssscccsssccsscccsccsssssscccssccssccssscccsscccccccccccccccccccccccccsscsccccsssscccsccccccccssccccccccccccccccccccccccccccccccsccccccscccccccccccccccccssccccccccccccccccccc"
     style="stroke-width:1.67188084" /></svg>