<?xml version="1.0" encoding="UTF-8" standalone="no"?>
<!DOCTYPE svg PUBLIC "-//W3C//DTD SVG 1.0//EN" "http://www.w3.org/TR/2001/REC-SVG-20010904/DTD/svg10.dtd">
<!-- Generated by Microsoft Visio 11.0, SVG Export, v1.0 hraci-plocha.svg Page-1 -->
<svg xmlns="http://www.w3.org/2000/svg" xmlns:xlink="http://www.w3.org/1999/xlink" xmlns:ev="http://www.w3.org/2001/xml-events"
		xmlns:v="http://schemas.microsoft.com/visio/2003/SVGExtensions/" width="6.26478in" height="6.09749in"
		viewBox="0 0 451.064 439.019" xml:space="preserve" color-interpolation-filters="sRGB" class="st24">
	<v:documentProperties v:langID="1033" v:metric="true" v:viewMarkup="false"/>

	<style type="text/css">
	<![CDATA[
		.st1 {fill:url(#grad28-5)}
		.st2 {stroke:#ffffff;stroke-linecap:round;stroke-linejoin:round;stroke-width:1.5}
		.st3 {fill:url(#grad28-10)}
		.st4 {fill:#ffffff;visibility:hidden}
		.st5 {stroke:#797979;stroke-linecap:round;stroke-linejoin:round;stroke-width:0.75}
		.st6 {fill:#000000;font-family:Calibri;font-size:1.16666em}
		.st7 {fill:#ffffff;stroke:#404040;stroke-linecap:round;stroke-linejoin:round;stroke-width:0.5}
		.st8 {fill:#000000;font-family:Calibri;font-size:0.666664em}
		.st9 {fill:none;stroke:#404040;stroke-linecap:round;stroke-linejoin:round;stroke-width:0.25}
		.st10 {font-size:1em}
		.st11 {fill:none;stroke:none;stroke-linecap:round;stroke-linejoin:round;stroke-width:0.25}
		.st12 {fill:#000000;font-family:Calibri;font-size:4.99999em}
		.st13 {fill:none;stroke:#404040;stroke-linecap:round;stroke-linejoin:round;stroke-width:1.5}
		.st14 {visibility:visible}
		.st15 {fill:none;stroke:#cdcdcd;stroke-linecap:round;stroke-linejoin:round;stroke-opacity:0.5;stroke-width:0.25}
		.st16 {fill:#cdcdcd;font-family:Calibri;font-size:0.666664em;opacity:0.498039}
		.st17 {fill:#ffffff;stroke:#8d8d8d;stroke-linecap:round;stroke-linejoin:round;stroke-width:0.25}
		.st18 {fill:url(#grad28-121);stroke:none;stroke-linecap:round;stroke-linejoin:round;stroke-width:0.75}
		.st19 {fill:url(#grad30-126);stroke:#8d8d8d;stroke-linecap:round;stroke-linejoin:round;stroke-width:0.25}
		.st20 {fill:url(#grad30-130);stroke:none;stroke-linecap:round;stroke-linejoin:round;stroke-width:0.5}
		.st21 {stroke:#545454;stroke-linecap:round;stroke-linejoin:round;stroke-width:0.5}
		.st22 {fill:#cdcdcd;fill-opacity:0.5;stroke:#cdcdcd;stroke-linecap:round;stroke-linejoin:round;stroke-opacity:0.5;stroke-width:0.25}
		.st23 {fill:url(#grad30-150);stroke:#404040;stroke-linecap:round;stroke-linejoin:round;stroke-width:0.25}
		.st24 {fill:none;fill-rule:evenodd;font-size:12px;overflow:visible;stroke-linecap:square;stroke-miterlimit:3}
	]]>
	</style>

	<defs id="Patterns_And_Gradients">
		<linearGradient id="grad28-5" v:fillPattern="28" v:foreground="#e9e9e9" v:background="#efefef" x1="0" y1="0" x2="0" y2="1">
			<stop offset="0" style="stop-color:#e9e9e9;stop-opacity:1"/>
			<stop offset="1" style="stop-color:#efefef;stop-opacity:1"/>
		</linearGradient>
		<linearGradient id="grad28-10" v:fillPattern="28" v:foreground="#ffffff" v:background="#fefefe" x1="0" y1="0" x2="0" y2="1">
			<stop offset="0" style="stop-color:#ffffff;stop-opacity:1"/>
			<stop offset="1" style="stop-color:#fefefe;stop-opacity:1"/>
		</linearGradient>
		<linearGradient id="grad28-121" v:fillPattern="28" v:foreground="#dddddd" v:background="#d8d8d8" x1="0" y1="0" x2="0"
				y2="1">
			<stop offset="0" style="stop-color:#dddddd;stop-opacity:1"/>
			<stop offset="1" style="stop-color:#d8d8d8;stop-opacity:1"/>
		</linearGradient>
		<linearGradient id="grad30-126" v:fillPattern="30" v:foreground="#d8d8d8" v:background="#efefef" x1="0" y1="1" x2="0"
				y2="0">
			<stop offset="0" style="stop-color:#d8d8d8;stop-opacity:1"/>
			<stop offset="1" style="stop-color:#efefef;stop-opacity:1"/>
		</linearGradient>
		<linearGradient id="grad30-130" v:fillPattern="30" v:foreground="#ffffff" v:background="#d8d8d8" x1="0" y1="1" x2="0"
				y2="0">
			<stop offset="0" style="stop-color:#ffffff;stop-opacity:1"/>
			<stop offset="1" style="stop-color:#d8d8d8;stop-opacity:1"/>
		</linearGradient>
		<linearGradient id="grad30-150" v:fillPattern="30" v:foreground="#f0f0f0" v:background="#ffffff" x1="0" y1="1" x2="0"
				y2="0">
			<stop offset="0" style="stop-color:#f0f0f0;stop-opacity:1"/>
			<stop offset="1" style="stop-color:#ffffff;stop-opacity:1"/>
		</linearGradient>
	</defs>
	<g v:mID="0" v:index="1" v:groupContext="foregroundPage">
		<title>Page-1</title>
		<v:pageProperties v:drawingScale="0.0393701" v:pageScale="0.0393701" v:drawingUnits="24" v:shadowOffsetX="8.50394"
				v:shadowOffsetY="-8.50394"/>
		<g id="group1-1" transform="translate(165.909,-351.996)" v:mID="1" v:groupContext="group">
			<v:userDefs>
				<v:ud v:nameU="FillBkgndIn" v:prompt="" v:val="VT5(#f0f0f0)"/>
				<v:ud v:nameU="LineColor" v:prompt="" v:val="VT5(#797979)"/>
				<v:ud v:nameU="BaseColor" v:prompt="" v:val="VT5(#ffffff)"/>
				<v:ud v:nameU="HColor1" v:prompt="" v:val="VT5(#ffffff)"/>
				<v:ud v:nameU="HColor2" v:prompt="" v:val="VT5(#fefefe)"/>
				<v:ud v:nameU="HColor3" v:prompt="" v:val="VT5(#e9e9e9)"/>
				<v:ud v:nameU="HColor4" v:prompt="" v:val="VT5(#efefef)"/>
				<v:ud v:nameU="AccentColor" v:prompt="" v:val="VT5(#ffffff)"/>
				<v:ud v:nameU="State" v:prompt="" v:val="VT0(0):26"/>
				<v:ud v:nameU="TextColor" v:prompt="" v:val="VT5(#000000)"/>
				<v:ud v:nameU="visVersion" v:prompt="" v:val="VT0(14):26"/>
				<v:ud v:nameU="msvThemeColors" v:val="VT0(36):26"/>
				<v:ud v:nameU="msvThemeEffects" v:val="VT0(16):26"/>
			</v:userDefs>
			<title>Button</title>
			<desc>Nová hra</desc>
			<g id="shape2-2" v:mID="2" v:groupContext="shape" transform="translate(0.375,-0.5625)">
				<title>Sheet.2</title>
				<path d="M0 423.8 L0 437.4 A1.62 1.62 -180 0 0 1.62 439.02 L88.34 439.02 A1.62 1.62 -180 0 0 89.96 437.4 L89.96 423.8
							 L0 423.8 Z" class="st1"/>
				<path d="M0 423.8 L0 437.4 A1.62 1.62 -180 0 0 1.62 439.02 L88.34 439.02 A1.62 1.62 -180 0 0 89.96 437.4 L89.96 423.8"
						class="st2"/>
			</g>
			<g id="shape3-7" v:mID="3" v:groupContext="shape" transform="translate(0.375,-15.4031)">
				<title>Sheet.3</title>
				<path d="M89.96 439.02 L89.96 425.42 A1.62 1.62 -180 0 0 88.34 423.8 L1.62 423.8 A1.62 1.62 -180 0 0 -0 425.42 L0
							 439.02 L89.96 439.02 Z" class="st3"/>
				<path d="M89.96 439.02 L89.96 425.42 A1.62 1.62 -180 0 0 88.34 423.8 L1.62 423.8 A1.62 1.62 -180 0 0 -0 425.42 L0
							 439.02" class="st2"/>
			</g>
			<g id="shape4-12" v:mID="4" v:groupContext="shape">
				<title>Sheet.4</title>
				<v:userDefs>
					<v:ud v:nameU="msvThemeColors" v:val="VT0(36):26"/>
					<v:ud v:nameU="msvThemeEffects" v:val="VT0(16):26"/>
				</v:userDefs>
				<rect x="0" y="407.838" width="90.7087" height="31.1811" rx="1.62" ry="1.62" class="st4"/>
				<rect x="0" y="407.838" width="90.7087" height="31.1811" rx="1.62" ry="1.62" class="st5"/>
			</g>
			<g id="shape1-15" v:mID="1" v:groupContext="groupContent">
				<v:textBlock v:margins="rect(4,4,4,4)" v:tabSpace="42.5197"/>
				<v:textRect cx="45.3543" cy="423.429" width="90.71" height="31.1811"/>
				<text x="19.58" y="427.63" class="st6" v:langID="1029"><v:paragraph v:horizAlign="1"/><v:tabList/>Nová hra</text>			</g>
		</g>
		<g id="shape9-17" v:mID="9" v:groupContext="shape" transform="translate(199.925,-393.368)">
			<title>Text box</title>
			<desc>Pepa</desc>
			<v:userDefs>
				<v:ud v:nameU="visVersion" v:prompt="" v:val="VT0(14):26"/>
				<v:ud v:nameU="msvThemeColors" v:val="VT0(36):26"/>
				<v:ud v:nameU="msvThemeEffects" v:val="VT0(16):26"/>
			</v:userDefs>
			<v:textBlock v:margins="rect(7.2,7.2,7.2,7.2)" v:tabSpace="42.5197"/>
			<v:textRect cx="28.3465" cy="433.619" width="56.7" height="10.8"/>
			<rect x="0" y="428.219" width="56.6929" height="10.8" class="st7"/>
			<text x="7.2" y="436.02" class="st8" v:langID="1029"><v:paragraph/><v:tabList/>Pepa</text>		</g>
		<g id="shape5-20" v:mID="5" v:groupContext="shape" transform="translate(165.909,-414.358)">
			<title>Label</title>
			<desc>Skóre: 123</desc>
			<v:userDefs>
				<v:ud v:nameU="visVersion" v:prompt="" v:val="VT0(14):26"/>
				<v:ud v:nameU="msvThemeColors" v:val="VT0(36):26"/>
				<v:ud v:nameU="msvThemeEffects" v:val="VT0(16):26"/>
			</v:userDefs>
			<v:textBlock v:margins="rect(4,4,4,4)" v:tabSpace="42.5197"/>
			<v:textRect cx="19.8425" cy="427.681" width="39.69" height="22.6772"/>
			<rect x="0" y="416.342" width="39.685" height="22.6772" class="st9"/>
			<text x="9.62" y="425.28" class="st8" v:langID="1029"><v:paragraph v:horizAlign="1"/><v:tabList/>Skóre:<v:lf/><tspan
						x="13.76" dy="1.2em" class="st10">123</tspan></text>		</g>
		<g id="shape6-24" v:mID="6" v:groupContext="shape" transform="translate(1.5,-374.673)">
			<title>Sheet.6</title>
			<desc>2048</desc>
			<v:userDefs>
				<v:ud v:nameU="msvThemeColors" v:val="VT0(36):26"/>
				<v:ud v:nameU="msvThemeEffects" v:val="VT0(16):26"/>
			</v:userDefs>
			<v:textBlock v:margins="rect(4,4,4,4)" v:tabSpace="42.5197"/>
			<v:textRect cx="76.5354" cy="410.673" width="153.08" height="56.6929"/>
			<rect x="0" y="382.327" width="153.071" height="56.6929" class="st11"/>
			<text x="15.72" y="428.67" class="st12" v:langID="1029"><v:paragraph v:horizAlign="1"/><v:tabList/>2048</text>		</g>
		<g id="shape7-27" v:mID="7" v:groupContext="shape" transform="translate(216.933,-414.358)">
			<title>Label.7</title>
			<desc>Nejlepší:999</desc>
			<v:userDefs>
				<v:ud v:nameU="visVersion" v:prompt="" v:val="VT0(14):26"/>
				<v:ud v:nameU="msvThemeColors" v:val="VT0(36):26"/>
				<v:ud v:nameU="msvThemeEffects" v:val="VT0(16):26"/>
			</v:userDefs>
			<v:textBlock v:margins="rect(4,4,4,4)" v:tabSpace="42.5197"/>
			<v:textRect cx="19.8425" cy="427.681" width="39.69" height="22.6772"/>
			<rect x="0" y="416.342" width="39.685" height="22.6772" class="st9"/>
			<text x="5.75" y="425.28" class="st8" v:langID="1029"><v:paragraph v:horizAlign="1"/><v:tabList/>Nejlepší:<tspan
						x="13.76" dy="1.2em" class="st10">999</tspan></text>		</g>
		<g id="shape8-31" v:mID="8" v:groupContext="shape" transform="translate(165.909,-393.143)">
			<title>Label.8</title>
			<desc>Jméno:</desc>
			<v:userDefs>
				<v:ud v:nameU="visVersion" v:prompt="" v:val="VT0(14):26"/>
				<v:ud v:nameU="msvThemeColors" v:val="VT0(36):26"/>
				<v:ud v:nameU="msvThemeEffects" v:val="VT0(16):26"/>
			</v:userDefs>
			<v:textBlock v:margins="rect(4,4,4,4)" v:tabSpace="42.5197"/>
			<v:textRect cx="17" cy="433.394" width="34" height="11.25"/>
			<rect x="0" y="427.769" width="34" height="11.25" class="st11"/>
			<text x="4" y="435.79" class="st8" v:langID="1029"><v:paragraph/><v:tabList/>Jméno:</text>		</g>
		<g id="shape11-34" v:mID="11" v:groupContext="shape" transform="translate(1.5,-265.689)">
			<title>Square.11</title>
			<v:userDefs>
				<v:ud v:nameU="visVersion" v:val="VT0(14):26"/>
				<v:ud v:nameU="msvThemeColors" v:val="VT0(36):26"/>
				<v:ud v:nameU="msvThemeEffects" v:val="VT0(16):26"/>
			</v:userDefs>
			<rect x="0" y="375.39" width="63.6295" height="63.6295" class="st13"/>
		</g>
		<g id="shape14-36" v:mID="14" v:groupContext="shape" transform="translate(192.989,-265.689)">
			<title>Square.14</title>
			<v:userDefs>
				<v:ud v:nameU="visVersion" v:val="VT0(14):26"/>
				<v:ud v:nameU="msvThemeColors" v:val="VT0(36):26"/>
				<v:ud v:nameU="msvThemeEffects" v:val="VT0(16):26"/>
			</v:userDefs>
			<rect x="0" y="375.39" width="63.6295" height="63.6295" class="st13"/>
		</g>
		<g id="shape12-38" v:mID="12" v:groupContext="shape" transform="translate(66.0632,-265.689)">
			<title>Square.12</title>
			<v:userDefs>
				<v:ud v:nameU="visVersion" v:val="VT0(14):26"/>
				<v:ud v:nameU="msvThemeColors" v:val="VT0(36):26"/>
				<v:ud v:nameU="msvThemeEffects" v:val="VT0(16):26"/>
			</v:userDefs>
			<rect x="0" y="375.39" width="63.6295" height="63.6295" class="st13"/>
		</g>
		<g id="shape13-40" v:mID="13" v:groupContext="shape" transform="translate(130.626,-265.689)">
			<title>Square.13</title>
			<v:userDefs>
				<v:ud v:nameU="visVersion" v:val="VT0(14):26"/>
				<v:ud v:nameU="msvThemeColors" v:val="VT0(36):26"/>
				<v:ud v:nameU="msvThemeEffects" v:val="VT0(16):26"/>
			</v:userDefs>
			<rect x="0" y="375.39" width="63.6295" height="63.6295" class="st13"/>
		</g>
		<g id="shape15-42" v:mID="15" v:groupContext="shape" transform="translate(1.5,-201.126)">
			<title>Square.15</title>
			<v:userDefs>
				<v:ud v:nameU="visVersion" v:val="VT0(14):26"/>
				<v:ud v:nameU="msvThemeColors" v:val="VT0(36):26"/>
				<v:ud v:nameU="msvThemeEffects" v:val="VT0(16):26"/>
			</v:userDefs>
			<rect x="0" y="375.39" width="63.6295" height="63.6295" class="st13"/>
		</g>
		<g id="shape16-44" v:mID="16" v:groupContext="shape" transform="translate(192.989,-201.126)">
			<title>Square.16</title>
			<v:userDefs>
				<v:ud v:nameU="visVersion" v:val="VT0(14):26"/>
				<v:ud v:nameU="msvThemeColors" v:val="VT0(36):26"/>
				<v:ud v:nameU="msvThemeEffects" v:val="VT0(16):26"/>
			</v:userDefs>
			<rect x="0" y="375.39" width="63.6295" height="63.6295" class="st13"/>
		</g>
		<g id="shape17-46" v:mID="17" v:groupContext="shape" transform="translate(66.0632,-201.126)">
			<title>Square.17</title>
			<v:userDefs>
				<v:ud v:nameU="visVersion" v:val="VT0(14):26"/>
				<v:ud v:nameU="msvThemeColors" v:val="VT0(36):26"/>
				<v:ud v:nameU="msvThemeEffects" v:val="VT0(16):26"/>
			</v:userDefs>
			<rect x="0" y="375.39" width="63.6295" height="63.6295" class="st13"/>
		</g>
		<g id="shape18-48" v:mID="18" v:groupContext="shape" transform="translate(130.626,-201.126)">
			<title>Square.18</title>
			<v:userDefs>
				<v:ud v:nameU="visVersion" v:val="VT0(14):26"/>
				<v:ud v:nameU="msvThemeColors" v:val="VT0(36):26"/>
				<v:ud v:nameU="msvThemeEffects" v:val="VT0(16):26"/>
			</v:userDefs>
			<rect x="0" y="375.39" width="63.6295" height="63.6295" class="st13"/>
		</g>
		<g id="shape19-50" v:mID="19" v:groupContext="shape" transform="translate(1.5,-138.764)">
			<title>Square.19</title>
			<v:userDefs>
				<v:ud v:nameU="visVersion" v:val="VT0(14):26"/>
				<v:ud v:nameU="msvThemeColors" v:val="VT0(36):26"/>
				<v:ud v:nameU="msvThemeEffects" v:val="VT0(16):26"/>
			</v:userDefs>
			<rect x="0" y="375.39" width="63.6295" height="63.6295" class="st13"/>
		</g>
		<g id="shape20-52" v:mID="20" v:groupContext="shape" transform="translate(192.989,-138.764)">
			<title>Square.20</title>
			<v:userDefs>
				<v:ud v:nameU="visVersion" v:val="VT0(14):26"/>
				<v:ud v:nameU="msvThemeColors" v:val="VT0(36):26"/>
				<v:ud v:nameU="msvThemeEffects" v:val="VT0(16):26"/>
			</v:userDefs>
			<rect x="0" y="375.39" width="63.6295" height="63.6295" class="st13"/>
		</g>
		<g id="shape21-54" v:mID="21" v:groupContext="shape" transform="translate(66.0632,-138.764)">
			<title>Square.21</title>
			<v:userDefs>
				<v:ud v:nameU="visVersion" v:val="VT0(14):26"/>
				<v:ud v:nameU="msvThemeColors" v:val="VT0(36):26"/>
				<v:ud v:nameU="msvThemeEffects" v:val="VT0(16):26"/>
			</v:userDefs>
			<rect x="0" y="375.39" width="63.6295" height="63.6295" class="st13"/>
		</g>
		<g id="shape22-56" v:mID="22" v:groupContext="shape" transform="translate(130.626,-138.764)">
			<title>Square.22</title>
			<v:userDefs>
				<v:ud v:nameU="visVersion" v:val="VT0(14):26"/>
				<v:ud v:nameU="msvThemeColors" v:val="VT0(36):26"/>
				<v:ud v:nameU="msvThemeEffects" v:val="VT0(16):26"/>
			</v:userDefs>
			<rect x="0" y="375.39" width="63.6295" height="63.6295" class="st13"/>
		</g>
		<g id="shape10-58" v:mID="10" v:groupContext="shape" transform="translate(1.5,-76.4018)">
			<title>Square.10</title>
			<v:userDefs>
				<v:ud v:nameU="visVersion" v:val="VT0(14):26"/>
				<v:ud v:nameU="msvThemeColors" v:val="VT0(36):26"/>
				<v:ud v:nameU="msvThemeEffects" v:val="VT0(16):26"/>
			</v:userDefs>
			<rect x="0" y="375.39" width="63.6295" height="63.6295" class="st13"/>
		</g>
		<g id="shape23-60" v:mID="23" v:groupContext="shape" transform="translate(192.989,-76.4018)">
			<title>Square.23</title>
			<v:userDefs>
				<v:ud v:nameU="visVersion" v:val="VT0(14):26"/>
				<v:ud v:nameU="msvThemeColors" v:val="VT0(36):26"/>
				<v:ud v:nameU="msvThemeEffects" v:val="VT0(16):26"/>
			</v:userDefs>
			<rect x="0" y="375.39" width="63.6295" height="63.6295" class="st13"/>
		</g>
		<g id="shape24-62" v:mID="24" v:groupContext="shape" transform="translate(66.0632,-76.4018)">
			<title>Square.24</title>
			<v:userDefs>
				<v:ud v:nameU="visVersion" v:val="VT0(14):26"/>
				<v:ud v:nameU="msvThemeColors" v:val="VT0(36):26"/>
				<v:ud v:nameU="msvThemeEffects" v:val="VT0(16):26"/>
			</v:userDefs>
			<rect x="0" y="375.39" width="63.6295" height="63.6295" class="st13"/>
		</g>
		<g id="shape25-64" v:mID="25" v:groupContext="shape" transform="translate(130.626,-76.4018)">
			<title>Square.25</title>
			<v:userDefs>
				<v:ud v:nameU="visVersion" v:val="VT0(14):26"/>
				<v:ud v:nameU="msvThemeColors" v:val="VT0(36):26"/>
				<v:ud v:nameU="msvThemeEffects" v:val="VT0(16):26"/>
			</v:userDefs>
			<rect x="0" y="375.39" width="63.6295" height="63.6295" class="st13"/>
		</g>
		<g id="shape26-66" v:mID="26" v:groupContext="shape" transform="translate(335.988,-420.072)">
			<title>Label.26</title>
			<desc>Výsledky</desc>
			<v:userDefs>
				<v:ud v:nameU="visVersion" v:prompt="" v:val="VT0(14):26"/>
				<v:ud v:nameU="msvThemeColors" v:val="VT0(36):26"/>
				<v:ud v:nameU="msvThemeEffects" v:val="VT0(16):26"/>
			</v:userDefs>
			<v:textBlock v:margins="rect(4,4,4,4)" v:tabSpace="42.5197"/>
			<v:textRect cx="20" cy="433.394" width="40" height="11.25"/>
			<rect x="0" y="427.769" width="40" height="11.25" class="st11"/>
			<text x="4" y="435.79" class="st8" v:langID="1029"><v:paragraph/><v:tabList/>Výsledky</text>		</g>
		<g id="shape27-69" v:mID="27" v:groupContext="shape" transform="translate(273.626,-74.2008)">
			<title>Sheet.27</title>
			<desc>1. Pepa 999 2. Eva 879 3. Jindra 695 4. xxx nn ...</desc>
			<v:userDefs>
				<v:ud v:nameU="msvThemeColors" v:val="VT0(36):26"/>
				<v:ud v:nameU="msvThemeEffects" v:val="VT0(16):26"/>
			</v:userDefs>
			<v:textBlock v:margins="rect(4,4,4,4)" v:tabSpace="42.5197" v:verticalAlign="0"/>
			<v:textRect cx="87.874" cy="271.775" width="175.75" height="334.488"/>
			<g id="shadow27-70" v:groupContext="shadow" v:shadowOffsetX="1.44" v:shadowOffsetY="-1.44" v:shadowType="1"
					transform="matrix(1,0,0,1,1.44,1.44)" class="st14">
				<rect x="0" y="104.531" width="175.748" height="334.488" class="st15"/>
				<text x="38.37" y="115.73" class="st16" v:langID="1029"><v:paragraph v:horizAlign="1"/><v:tabList/>1.<v:tabChar/><tspan
							dx="4.556em" class="st10"> </tspan>Pepa<v:tabChar/><tspan dx="3.07em" class="st10"> </tspan>999<v:newlineChar/><tspan
							x="39.27" dy="1.2em" class="st10">2</tspan>. <v:tabChar/><tspan dx="4.33em" class="st10">Eva <v:tabChar/></tspan><tspan
							dx="3.67em" class="st10">879<v:newlineChar/></tspan><tspan x="39.27" dy="1.2em" class="st10">3</tspan>.<v:tabChar/><tspan
							dx="4.556em" class="st10"> </tspan>Jindra <v:tabChar/><tspan dx="2.436em" class="st10">695<v:newlineChar/></tspan><tspan
							x="41.15" dy="1.2em" class="st10">4</tspan>.<v:tabChar/><tspan dx="4.556em" class="st10"> </tspan>xxx <v:tabChar/><tspan
							dx="3.563em" class="st10">nn<v:newlineChar/></tspan><tspan x="84.84" dy="1.2em" class="st10">...</tspan></text>			</g>
			<rect x="0" y="104.531" width="175.748" height="334.488" class="st9"/>
			<text x="38.37" y="115.73" class="st8" v:langID="1029"><v:paragraph v:horizAlign="1"/><v:tabList/>1.<v:tabChar/><tspan
						dx="4.556em" class="st10"> </tspan>Pepa<v:tabChar/><tspan dx="3.07em" class="st10"> </tspan>999<v:newlineChar/><tspan
						x="39.27" dy="1.2em" class="st10">2</tspan>. <v:tabChar/><tspan dx="4.33em" class="st10">Eva <v:tabChar/></tspan><tspan
						dx="3.67em" class="st10">879<v:newlineChar/></tspan><tspan x="39.27" dy="1.2em" class="st10">3</tspan>.<v:tabChar/><tspan
						dx="4.556em" class="st10"> </tspan>Jindra <v:tabChar/><tspan dx="2.436em" class="st10">695<v:newlineChar/></tspan><tspan
						x="41.15" dy="1.2em" class="st10">4</tspan>.<v:tabChar/><tspan dx="4.556em" class="st10"> </tspan>xxx <v:tabChar/><tspan
						dx="3.563em" class="st10">nn<v:newlineChar/></tspan><tspan x="84.84" dy="1.2em" class="st10">...</tspan></text>		</g>
		<g id="group29-99" transform="translate(69.5315,-4.10773)" v:mID="29" v:groupContext="group">
			<v:userDefs>
				<v:ud v:nameU="FillBkgndIn" v:prompt="" v:val="VT5(#f0f0f0)"/>
				<v:ud v:nameU="LineColor" v:prompt="" v:val="VT5(#797979)"/>
				<v:ud v:nameU="BaseColor" v:prompt="" v:val="VT5(#ffffff)"/>
				<v:ud v:nameU="HColor1" v:prompt="" v:val="VT5(#ffffff)"/>
				<v:ud v:nameU="HColor2" v:prompt="" v:val="VT5(#fefefe)"/>
				<v:ud v:nameU="HColor3" v:prompt="" v:val="VT5(#e9e9e9)"/>
				<v:ud v:nameU="HColor4" v:prompt="" v:val="VT5(#efefef)"/>
				<v:ud v:nameU="AccentColor" v:prompt="" v:val="VT5(#ffffff)"/>
				<v:ud v:nameU="State" v:prompt="" v:val="VT0(0):26"/>
				<v:ud v:nameU="TextColor" v:prompt="" v:val="VT5(#000000)"/>
				<v:ud v:nameU="visVersion" v:prompt="" v:val="VT0(14):26"/>
				<v:ud v:nameU="msvThemeColors" v:val="VT0(36):26"/>
				<v:ud v:nameU="msvThemeEffects" v:val="VT0(16):26"/>
			</v:userDefs>
			<title>Button.29</title>
			<desc>Přehrát od začátku</desc>
			<g id="shape30-100" v:mID="30" v:groupContext="shape" transform="translate(0.375,-0.5625)">
				<title>Sheet.30</title>
				<path d="M0 427.03 L0 437.4 A1.62 1.62 -180 0 0 1.62 439.02 L54.32 439.02 A1.62 1.62 -180 0 0 55.94 437.4 L55.94
							 427.03 L0 427.03 Z" class="st1"/>
				<path d="M0 427.03 L0 437.4 A1.62 1.62 -180 0 0 1.62 439.02 L54.32 439.02 A1.62 1.62 -180 0 0 55.94 437.4 L55.94
							 427.03" class="st2"/>
			</g>
			<g id="shape31-104" v:mID="31" v:groupContext="shape" transform="translate(0.375,-12.1819)">
				<title>Sheet.31</title>
				<path d="M55.94 439.02 L55.94 428.65 A1.62 1.62 -180 0 0 54.32 427.03 L1.62 427.03 A1.62 1.62 -180 0 0 -0 428.65
							 L0 439.02 L55.94 439.02 Z" class="st3"/>
				<path d="M55.94 439.02 L55.94 428.65 A1.62 1.62 -180 0 0 54.32 427.03 L1.62 427.03 A1.62 1.62 -180 0 0 -0 428.65
							 L0 439.02" class="st2"/>
			</g>
			<g id="shape32-108" v:mID="32" v:groupContext="shape">
				<title>Sheet.32</title>
				<v:userDefs>
					<v:ud v:nameU="msvThemeColors" v:val="VT0(36):26"/>
					<v:ud v:nameU="msvThemeEffects" v:val="VT0(16):26"/>
				</v:userDefs>
				<rect x="0" y="414.281" width="56.6929" height="24.7387" rx="1.62" ry="1.62" class="st4"/>
				<rect x="0" y="414.281" width="56.6929" height="24.7387" rx="1.62" ry="1.62" class="st5"/>
			</g>
			<g id="shape29-111" v:mID="29" v:groupContext="groupContent">
				<v:textBlock v:margins="rect(4,4,4,4)" v:tabSpace="42.5197"/>
				<v:textRect cx="28.3465" cy="426.65" width="56.7" height="24.7387"/>
				<text x="11.03" y="424.25" class="st8" v:langID="1029"><v:paragraph v:horizAlign="1"/><v:tabList/>Přehrát od <tspan
							x="15.98" dy="1.2em" class="st10">začátku</tspan></text>			</g>
		</g>
		<g id="group33-114" transform="translate(137.563,-0.5)" v:mID="33" v:groupContext="group">
			<v:custProps>
				<v:cp v:nameU="Ticks" v:lbl="Number of Ticks" v:prompt="" v:type="1" v:format="2;3;4;5;6;7;8;9;10;11;12;13;14;15"
						v:sortKey="" v:invis="false" v:ask="false" v:langID="1033" v:cal="0" v:val="VT4(5)"/>
			</v:custProps>
			<v:userDefs>
				<v:ud v:nameU="isVertical" v:prompt="" v:val="VT0(0):26"/>
				<v:ud v:nameU="TickLines" v:prompt="" v:val="VT0(0):26"/>
				<v:ud v:nameU="Disabled" v:prompt="" v:val="VT0(0):5"/>
				<v:ud v:nameU="Pixel" v:prompt="" v:val="VT0(0.0098425196850394):24"/>
				<v:ud v:nameU="BaseColor" v:prompt="" v:val="VT5(#d8d8d8)"/>
				<v:ud v:nameU="FillBkgnd" v:prompt="" v:val="VT5(#d8d8d8)"/>
				<v:ud v:nameU="TickIntervals" v:prompt="" v:val="VT0(0.39370078740158):1"/>
				<v:ud v:nameU="visVersion" v:prompt="" v:val="VT0(14):26"/>
				<v:ud v:nameU="msvThemeColors" v:val="VT0(36):26"/>
				<v:ud v:nameU="msvThemeEffects" v:val="VT0(16):26"/>
			</v:userDefs>
			<title>Slider</title>
			<g id="group34-115" transform="translate(0,-7.68756)" v:mID="34" v:groupContext="group">
				<v:userDefs>
					<v:ud v:nameU="msvThemeColors" v:val="VT0(36):26"/>
					<v:ud v:nameU="msvThemeEffects" v:val="VT0(16):26"/>
				</v:userDefs>
				<title>Sheet.34</title>
				<g id="shape35-116" v:mID="35" v:groupContext="shape">
					<title>Sheet.35</title>
					<rect x="0" y="437.387" width="113.386" height="1.63276" class="st17"/>
				</g>
				<g id="shape36-118" v:mID="36" v:groupContext="shape" transform="translate(0.737008,-0.122457)">
					<title>Sheet.36</title>
					<rect x="0" y="438.121" width="112.819" height="0.898016" class="st18"/>
				</g>
			</g>
			<g id="group37-122" transform="translate(54.0354,-3.18898)" v:mID="37" v:groupContext="group">
				<v:userDefs>
					<v:ud v:nameU="Pixel" v:prompt="" v:val="VT0(0.0098425196850394):24"/>
					<v:ud v:nameU="TickLines" v:prompt="" v:val="VT0(0):26"/>
					<v:ud v:nameU="Disabled" v:prompt="" v:val="VT0(0):5"/>
					<v:ud v:nameU="msvThemeColors" v:val="VT0(36):26"/>
					<v:ud v:nameU="msvThemeEffects" v:val="VT0(16):26"/>
				</v:userDefs>
				<title>Sheet.37</title>
				<g id="shape38-123" v:mID="38" v:groupContext="shape">
					<title>Sheet.38</title>
					<v:userDefs>
						<v:ud v:nameU="isVertical" v:prompt="" v:val="VT0(0):26"/>
					</v:userDefs>
					<path d="M5.31 436.3 L5.31 428.39 L0 428.39 L0 436.3 L2.74 439.02 L5.31 436.3 Z" class="st19"/>
				</g>
				<g id="shape39-127" v:mID="39" v:groupContext="shape" transform="translate(0.66437,-1.06299)">
					<title>Sheet.39</title>
					<v:userDefs>
						<v:ud v:nameU="isVertical" v:prompt="" v:val="VT0(0):26"/>
					</v:userDefs>
					<path d="M3.99 436.84 L3.99 430.52 L0 430.52 L0 436.84 L2.06 439.02 L3.99 436.84 Z" class="st20"/>
				</g>
			</g>
			<g id="shape40-131" v:mID="40" v:groupContext="shape" transform="translate(0,-16.1575)">
				<title>Sheet.40</title>
				<v:userDefs>
					<v:ud v:nameU="Ticks" v:prompt="" v:val="VT0(5):26"/>
					<v:ud v:nameU="TickIntervals" v:prompt="" v:val="VT0(0.39370078740158):1"/>
					<v:ud v:nameU="msvThemeColors" v:val="VT0(36):26"/>
					<v:ud v:nameU="msvThemeEffects" v:val="VT0(16):26"/>
				</v:userDefs>
				<path d="M0 439.02 L0 438.17" class="st21"/>
				<path d="M28.35 439.02 L28.35 438.17" class="st21"/>
				<path d="M56.69 439.02 L56.69 438.17" class="st21"/>
				<path d="M85.04 439.02 L85.04 438.17" class="st21"/>
				<path d="M113.39 439.02 L113.39 438.17" class="st21"/>
			</g>
			<g id="shape41-138" v:mID="41" v:groupContext="shape">
				<title>Sheet.41</title>
				<v:userDefs>
					<v:ud v:nameU="Ticks" v:prompt="" v:val="VT0(5):26"/>
					<v:ud v:nameU="TickIntervals" v:prompt="" v:val="VT0(0.39370078740158):1"/>
					<v:ud v:nameU="msvThemeColors" v:val="VT0(36):26"/>
					<v:ud v:nameU="msvThemeEffects" v:val="VT0(16):26"/>
				</v:userDefs>
				<path d="M0 439.02 L0 438.17" class="st21"/>
				<path d="M28.35 439.02 L28.35 438.17" class="st21"/>
				<path d="M56.69 439.02 L56.69 438.17" class="st21"/>
				<path d="M85.04 439.02 L85.04 438.17" class="st21"/>
				<path d="M113.39 439.02 L113.39 438.17" class="st21"/>
			</g>
		</g>
		<g id="shape42-145" v:mID="42" v:groupContext="shape" transform="translate(137.563,-17.5079)">
			<title>Sheet.42</title>
			<desc>Rychlost přehrávání</desc>
			<v:userDefs>
				<v:ud v:nameU="msvThemeColors" v:val="VT0(36):26"/>
				<v:ud v:nameU="msvThemeEffects" v:val="VT0(16):26"/>
			</v:userDefs>
			<v:textBlock v:margins="rect(4,4,4,4)" v:tabSpace="42.5197"/>
			<v:textRect cx="56.6929" cy="433.35" width="113.39" height="11.3386"/>
			<g id="shadow42-146" v:groupContext="shadow" v:shadowOffsetX="1.44" v:shadowOffsetY="-1.44" v:shadowType="1"
					transform="matrix(1,0,0,1,1.44,1.44)" class="st14">
				<rect x="0" y="427.681" width="113.386" height="11.3386" class="st22"/>
			</g>
			<rect x="0" y="427.681" width="113.386" height="11.3386" class="st23"/>
			<text x="24.44" y="435.75" class="st8" v:langID="1029"><v:paragraph v:horizAlign="1"/><v:tabList/>Rychlost přehrávání</text>		</g>
		<g id="group43-152" transform="translate(1.5,-40.185)" v:mID="43" v:groupContext="group">
			<v:userDefs>
				<v:ud v:nameU="FillBkgndIn" v:prompt="" v:val="VT5(#f0f0f0)"/>
				<v:ud v:nameU="LineColor" v:prompt="" v:val="VT5(#797979)"/>
				<v:ud v:nameU="BaseColor" v:prompt="" v:val="VT5(#ffffff)"/>
				<v:ud v:nameU="HColor1" v:prompt="" v:val="VT5(#ffffff)"/>
				<v:ud v:nameU="HColor2" v:prompt="" v:val="VT5(#fefefe)"/>
				<v:ud v:nameU="HColor3" v:prompt="" v:val="VT5(#e9e9e9)"/>
				<v:ud v:nameU="HColor4" v:prompt="" v:val="VT5(#efefef)"/>
				<v:ud v:nameU="AccentColor" v:prompt="" v:val="VT5(#ffffff)"/>
				<v:ud v:nameU="State" v:prompt="" v:val="VT0(0):26"/>
				<v:ud v:nameU="TextColor" v:prompt="" v:val="VT5(#000000)"/>
				<v:ud v:nameU="visVersion" v:prompt="" v:val="VT0(14):26"/>
				<v:ud v:nameU="msvThemeColors" v:val="VT0(36):26"/>
				<v:ud v:nameU="msvThemeEffects" v:val="VT0(16):26"/>
			</v:userDefs>
			<title>Button.43</title>
			<desc>Nahoru</desc>
			<g id="shape44-153" v:mID="44" v:groupContext="shape" transform="translate(0.375,-0.5625)">
				<title>Sheet.44</title>
				<path d="M0 427.35 L0 437.4 A1.62 1.62 -180 0 0 1.62 439.02 L55.46 439.02 A1.62 1.62 -180 0 0 57.08 437.4 L57.08
							 427.35 L0 427.35 Z" class="st1"/>
				<path d="M0 427.35 L0 437.4 A1.62 1.62 -180 0 0 1.62 439.02 L55.46 439.02 A1.62 1.62 -180 0 0 57.08 437.4 L57.08
							 427.35" class="st2"/>
			</g>
			<g id="shape45-157" v:mID="45" v:groupContext="shape" transform="translate(0.375,-11.8597)">
				<title>Sheet.45</title>
				<path d="M57.08 439.02 L57.08 428.97 A1.62 1.62 -180 0 0 55.46 427.35 L1.62 427.35 A1.62 1.62 -180 0 0 -0 428.97
							 L0 439.02 L57.08 439.02 Z" class="st3"/>
				<path d="M57.08 439.02 L57.08 428.97 A1.62 1.62 -180 0 0 55.46 427.35 L1.62 427.35 A1.62 1.62 -180 0 0 -0 428.97
							 L0 439.02" class="st2"/>
			</g>
			<g id="shape46-161" v:mID="46" v:groupContext="shape">
				<title>Sheet.46</title>
				<v:userDefs>
					<v:ud v:nameU="msvThemeColors" v:val="VT0(36):26"/>
					<v:ud v:nameU="msvThemeEffects" v:val="VT0(16):26"/>
				</v:userDefs>
				<rect x="0" y="414.925" width="57.8268" height="24.0945" rx="1.62" ry="1.62" class="st4"/>
				<rect x="0" y="414.925" width="57.8268" height="24.0945" rx="1.62" ry="1.62" class="st5"/>
			</g>
			<g id="shape43-164" v:mID="43" v:groupContext="groupContent">
				<v:textBlock v:margins="rect(4,4,4,4)" v:tabSpace="42.5197"/>
				<v:textRect cx="28.9134" cy="426.972" width="57.83" height="24.0945"/>
				<text x="16.71" y="429.37" class="st8" v:langID="1029"><v:paragraph v:horizAlign="1"/><v:tabList/>Nahoru</text>			</g>
		</g>
		<g id="group28-166" transform="translate(1.5,-4.10773)" v:mID="28" v:groupContext="group">
			<v:userDefs>
				<v:ud v:nameU="FillBkgndIn" v:prompt="" v:val="VT5(#f0f0f0)"/>
				<v:ud v:nameU="LineColor" v:prompt="" v:val="VT5(#797979)"/>
				<v:ud v:nameU="BaseColor" v:prompt="" v:val="VT5(#ffffff)"/>
				<v:ud v:nameU="HColor1" v:prompt="" v:val="VT5(#ffffff)"/>
				<v:ud v:nameU="HColor2" v:prompt="" v:val="VT5(#fefefe)"/>
				<v:ud v:nameU="HColor3" v:prompt="" v:val="VT5(#e9e9e9)"/>
				<v:ud v:nameU="HColor4" v:prompt="" v:val="VT5(#efefef)"/>
				<v:ud v:nameU="AccentColor" v:prompt="" v:val="VT5(#ffffff)"/>
				<v:ud v:nameU="State" v:prompt="" v:val="VT0(0):26"/>
				<v:ud v:nameU="TextColor" v:prompt="" v:val="VT5(#000000)"/>
				<v:ud v:nameU="visVersion" v:prompt="" v:val="VT0(14):26"/>
				<v:ud v:nameU="msvThemeColors" v:val="VT0(36):26"/>
				<v:ud v:nameU="msvThemeEffects" v:val="VT0(16):26"/>
			</v:userDefs>
			<title>Button.28</title>
			<desc>Krok zpět</desc>
			<g id="shape47-167" v:mID="47" v:groupContext="shape" transform="translate(0.375,-0.5625)">
				<title>Sheet.47</title>
				<path d="M0 427.03 L0 437.4 A1.62 1.62 -180 0 0 1.62 439.02 L54.32 439.02 A1.62 1.62 -180 0 0 55.94 437.4 L55.94
							 427.03 L0 427.03 Z" class="st1"/>
				<path d="M0 427.03 L0 437.4 A1.62 1.62 -180 0 0 1.62 439.02 L54.32 439.02 A1.62 1.62 -180 0 0 55.94 437.4 L55.94
							 427.03" class="st2"/>
			</g>
			<g id="shape48-171" v:mID="48" v:groupContext="shape" transform="translate(0.375,-12.1819)">
				<title>Sheet.48</title>
				<path d="M55.94 439.02 L55.94 428.65 A1.62 1.62 -180 0 0 54.32 427.03 L1.62 427.03 A1.62 1.62 -180 0 0 -0 428.65
							 L0 439.02 L55.94 439.02 Z" class="st3"/>
				<path d="M55.94 439.02 L55.94 428.65 A1.62 1.62 -180 0 0 54.32 427.03 L1.62 427.03 A1.62 1.62 -180 0 0 -0 428.65
							 L0 439.02" class="st2"/>
			</g>
			<g id="shape49-175" v:mID="49" v:groupContext="shape">
				<title>Sheet.49</title>
				<v:userDefs>
					<v:ud v:nameU="msvThemeColors" v:val="VT0(36):26"/>
					<v:ud v:nameU="msvThemeEffects" v:val="VT0(16):26"/>
				</v:userDefs>
				<rect x="0" y="414.281" width="56.6929" height="24.7387" rx="1.62" ry="1.62" class="st4"/>
				<rect x="0" y="414.281" width="56.6929" height="24.7387" rx="1.62" ry="1.62" class="st5"/>
			</g>
			<g id="shape28-178" v:mID="28" v:groupContext="groupContent">
				<v:textBlock v:margins="rect(4,4,4,4)" v:tabSpace="42.5197"/>
				<v:textRect cx="28.3465" cy="426.65" width="56.7" height="24.7387"/>
				<text x="13.03" y="429.05" class="st8" v:langID="1029"><v:paragraph v:horizAlign="1"/><v:tabList/>Krok zpět</text>			</g>
		</g>
		<g id="group50-180" transform="translate(68.9646,-40.185)" v:mID="50" v:groupContext="group">
			<v:userDefs>
				<v:ud v:nameU="FillBkgndIn" v:prompt="" v:val="VT5(#f0f0f0)"/>
				<v:ud v:nameU="LineColor" v:prompt="" v:val="VT5(#797979)"/>
				<v:ud v:nameU="BaseColor" v:prompt="" v:val="VT5(#ffffff)"/>
				<v:ud v:nameU="HColor1" v:prompt="" v:val="VT5(#ffffff)"/>
				<v:ud v:nameU="HColor2" v:prompt="" v:val="VT5(#fefefe)"/>
				<v:ud v:nameU="HColor3" v:prompt="" v:val="VT5(#e9e9e9)"/>
				<v:ud v:nameU="HColor4" v:prompt="" v:val="VT5(#efefef)"/>
				<v:ud v:nameU="AccentColor" v:prompt="" v:val="VT5(#ffffff)"/>
				<v:ud v:nameU="State" v:prompt="" v:val="VT0(0):26"/>
				<v:ud v:nameU="TextColor" v:prompt="" v:val="VT5(#000000)"/>
				<v:ud v:nameU="visVersion" v:prompt="" v:val="VT0(14):26"/>
				<v:ud v:nameU="msvThemeColors" v:val="VT0(36):26"/>
				<v:ud v:nameU="msvThemeEffects" v:val="VT0(16):26"/>
			</v:userDefs>
			<title>Button.50</title>
			<desc>Dolů</desc>
			<g id="shape51-181" v:mID="51" v:groupContext="shape" transform="translate(0.375,-0.5625)">
				<title>Sheet.51</title>
				<path d="M0 427.35 L0 437.4 A1.62 1.62 -180 0 0 1.62 439.02 L55.46 439.02 A1.62 1.62 -180 0 0 57.08 437.4 L57.08
							 427.35 L0 427.35 Z" class="st1"/>
				<path d="M0 427.35 L0 437.4 A1.62 1.62 -180 0 0 1.62 439.02 L55.46 439.02 A1.62 1.62 -180 0 0 57.08 437.4 L57.08
							 427.35" class="st2"/>
			</g>
			<g id="shape52-185" v:mID="52" v:groupContext="shape" transform="translate(0.375,-11.8597)">
				<title>Sheet.52</title>
				<path d="M57.08 439.02 L57.08 428.97 A1.62 1.62 -180 0 0 55.46 427.35 L1.62 427.35 A1.62 1.62 -180 0 0 -0 428.97
							 L0 439.02 L57.08 439.02 Z" class="st3"/>
				<path d="M57.08 439.02 L57.08 428.97 A1.62 1.62 -180 0 0 55.46 427.35 L1.62 427.35 A1.62 1.62 -180 0 0 -0 428.97
							 L0 439.02" class="st2"/>
			</g>
			<g id="shape53-189" v:mID="53" v:groupContext="shape">
				<title>Sheet.53</title>
				<v:userDefs>
					<v:ud v:nameU="msvThemeColors" v:val="VT0(36):26"/>
					<v:ud v:nameU="msvThemeEffects" v:val="VT0(16):26"/>
				</v:userDefs>
				<rect x="0" y="414.925" width="57.8268" height="24.0945" rx="1.62" ry="1.62" class="st4"/>
				<rect x="0" y="414.925" width="57.8268" height="24.0945" rx="1.62" ry="1.62" class="st5"/>
			</g>
			<g id="shape50-192" v:mID="50" v:groupContext="groupContent">
				<v:textBlock v:margins="rect(4,4,4,4)" v:tabSpace="42.5197"/>
				<v:textRect cx="28.9134" cy="426.972" width="57.83" height="24.0945"/>
				<text x="21.32" y="429.37" class="st8" v:langID="1029"><v:paragraph v:horizAlign="1"/><v:tabList/>Dolů</text>			</g>
		</g>
		<g id="group54-194" transform="translate(133.528,-40.185)" v:mID="54" v:groupContext="group">
			<v:userDefs>
				<v:ud v:nameU="FillBkgndIn" v:prompt="" v:val="VT5(#f0f0f0)"/>
				<v:ud v:nameU="LineColor" v:prompt="" v:val="VT5(#797979)"/>
				<v:ud v:nameU="BaseColor" v:prompt="" v:val="VT5(#ffffff)"/>
				<v:ud v:nameU="HColor1" v:prompt="" v:val="VT5(#ffffff)"/>
				<v:ud v:nameU="HColor2" v:prompt="" v:val="VT5(#fefefe)"/>
				<v:ud v:nameU="HColor3" v:prompt="" v:val="VT5(#e9e9e9)"/>
				<v:ud v:nameU="HColor4" v:prompt="" v:val="VT5(#efefef)"/>
				<v:ud v:nameU="AccentColor" v:prompt="" v:val="VT5(#ffffff)"/>
				<v:ud v:nameU="State" v:prompt="" v:val="VT0(0):26"/>
				<v:ud v:nameU="TextColor" v:prompt="" v:val="VT5(#000000)"/>
				<v:ud v:nameU="visVersion" v:prompt="" v:val="VT0(14):26"/>
				<v:ud v:nameU="msvThemeColors" v:val="VT0(36):26"/>
				<v:ud v:nameU="msvThemeEffects" v:val="VT0(16):26"/>
			</v:userDefs>
			<title>Button.54</title>
			<desc>Doleva</desc>
			<g id="shape55-195" v:mID="55" v:groupContext="shape" transform="translate(0.375,-0.5625)">
				<title>Sheet.55</title>
				<path d="M0 427.35 L0 437.4 A1.62 1.62 -180 0 0 1.62 439.02 L55.46 439.02 A1.62 1.62 -180 0 0 57.08 437.4 L57.08
							 427.35 L0 427.35 Z" class="st1"/>
				<path d="M0 427.35 L0 437.4 A1.62 1.62 -180 0 0 1.62 439.02 L55.46 439.02 A1.62 1.62 -180 0 0 57.08 437.4 L57.08
							 427.35" class="st2"/>
			</g>
			<g id="shape56-199" v:mID="56" v:groupContext="shape" transform="translate(0.375,-11.8597)">
				<title>Sheet.56</title>
				<path d="M57.08 439.02 L57.08 428.97 A1.62 1.62 -180 0 0 55.46 427.35 L1.62 427.35 A1.62 1.62 -180 0 0 -0 428.97
							 L0 439.02 L57.08 439.02 Z" class="st3"/>
				<path d="M57.08 439.02 L57.08 428.97 A1.62 1.62 -180 0 0 55.46 427.35 L1.62 427.35 A1.62 1.62 -180 0 0 -0 428.97
							 L0 439.02" class="st2"/>
			</g>
			<g id="shape57-203" v:mID="57" v:groupContext="shape">
				<title>Sheet.57</title>
				<v:userDefs>
					<v:ud v:nameU="msvThemeColors" v:val="VT0(36):26"/>
					<v:ud v:nameU="msvThemeEffects" v:val="VT0(16):26"/>
				</v:userDefs>
				<rect x="0" y="414.925" width="57.8268" height="24.0945" rx="1.62" ry="1.62" class="st4"/>
				<rect x="0" y="414.925" width="57.8268" height="24.0945" rx="1.62" ry="1.62" class="st5"/>
			</g>
			<g id="shape54-206" v:mID="54" v:groupContext="groupContent">
				<v:textBlock v:margins="rect(4,4,4,4)" v:tabSpace="42.5197"/>
				<v:textRect cx="28.9134" cy="426.972" width="57.83" height="24.0945"/>
				<text x="17.71" y="429.37" class="st8" v:langID="1029"><v:paragraph v:horizAlign="1"/><v:tabList/>Doleva</text>			</g>
		</g>
		<g id="group58-208" transform="translate(198.091,-40.185)" v:mID="58" v:groupContext="group">
			<v:userDefs>
				<v:ud v:nameU="FillBkgndIn" v:prompt="" v:val="VT5(#f0f0f0)"/>
				<v:ud v:nameU="LineColor" v:prompt="" v:val="VT5(#797979)"/>
				<v:ud v:nameU="BaseColor" v:prompt="" v:val="VT5(#ffffff)"/>
				<v:ud v:nameU="HColor1" v:prompt="" v:val="VT5(#ffffff)"/>
				<v:ud v:nameU="HColor2" v:prompt="" v:val="VT5(#fefefe)"/>
				<v:ud v:nameU="HColor3" v:prompt="" v:val="VT5(#e9e9e9)"/>
				<v:ud v:nameU="HColor4" v:prompt="" v:val="VT5(#efefef)"/>
				<v:ud v:nameU="AccentColor" v:prompt="" v:val="VT5(#ffffff)"/>
				<v:ud v:nameU="State" v:prompt="" v:val="VT0(0):26"/>
				<v:ud v:nameU="TextColor" v:prompt="" v:val="VT5(#000000)"/>
				<v:ud v:nameU="visVersion" v:prompt="" v:val="VT0(14):26"/>
				<v:ud v:nameU="msvThemeColors" v:val="VT0(36):26"/>
				<v:ud v:nameU="msvThemeEffects" v:val="VT0(16):26"/>
			</v:userDefs>
			<title>Button.58</title>
			<desc>Doprava</desc>
			<g id="shape59-209" v:mID="59" v:groupContext="shape" transform="translate(0.375,-0.5625)">
				<title>Sheet.59</title>
				<path d="M0 427.35 L0 437.4 A1.62 1.62 -180 0 0 1.62 439.02 L55.46 439.02 A1.62 1.62 -180 0 0 57.08 437.4 L57.08
							 427.35 L0 427.35 Z" class="st1"/>
				<path d="M0 427.35 L0 437.4 A1.62 1.62 -180 0 0 1.62 439.02 L55.46 439.02 A1.62 1.62 -180 0 0 57.08 437.4 L57.08
							 427.35" class="st2"/>
			</g>
			<g id="shape60-213" v:mID="60" v:groupContext="shape" transform="translate(0.375,-11.8597)">
				<title>Sheet.60</title>
				<path d="M57.08 439.02 L57.08 428.97 A1.62 1.62 -180 0 0 55.46 427.35 L1.62 427.35 A1.62 1.62 -180 0 0 -0 428.97
							 L0 439.02 L57.08 439.02 Z" class="st3"/>
				<path d="M57.08 439.02 L57.08 428.97 A1.62 1.62 -180 0 0 55.46 427.35 L1.62 427.35 A1.62 1.62 -180 0 0 -0 428.97
							 L0 439.02" class="st2"/>
			</g>
			<g id="shape61-217" v:mID="61" v:groupContext="shape">
				<title>Sheet.61</title>
				<v:userDefs>
					<v:ud v:nameU="msvThemeColors" v:val="VT0(36):26"/>
					<v:ud v:nameU="msvThemeEffects" v:val="VT0(16):26"/>
				</v:userDefs>
				<rect x="0" y="414.925" width="57.8268" height="24.0945" rx="1.62" ry="1.62" class="st4"/>
				<rect x="0" y="414.925" width="57.8268" height="24.0945" rx="1.62" ry="1.62" class="st5"/>
			</g>
			<g id="shape58-220" v:mID="58" v:groupContext="groupContent">
				<v:textBlock v:margins="rect(4,4,4,4)" v:tabSpace="42.5197"/>
				<v:textRect cx="28.9134" cy="426.972" width="57.83" height="24.0945"/>
				<text x="15.21" y="429.37" class="st8" v:langID="1029"><v:paragraph v:horizAlign="1"/><v:tabList/>Doprava</text>			</g>
		</g>
	</g>
</svg>
